<svg width="399.98" height="79.275" enable-background="new 0 0 717.17 540" version="1.1" viewBox="0 0 399.98 79.275" xml:space="preserve" xmlns="http://www.w3.org/2000/svg"><g transform="translate(-20 -20)" stroke-width=".70994"><path d="m59.543 20 39.544 39.528-39.5 39.514-0.017748-18.465 21.05-21.05-21.05-21.049z" fill="#4bb07b"/><path d="m38.468 59.527 21.102-21.049-0.026268-18.478-39.543 39.528 39.587 39.514-0.017748-18.465z" fill="#24425d"/><path d="m91.081 99.275-0.017748-18.466 21.05-21.05-21.05-21.049-0.025558-18.478 39.542 39.528z" fill="#4bb07b"/></g><g transform="scale(.95898 1.0428)" fill="#4bb07b" stroke-width=".95898" aria-label="CAST"><path d="m315.67 55.704q-4.2639 2.0641-11.135 2.0641-8.9624 0-14.095-5.2688-5.133-5.2688-5.133-14.041 0-9.3426 5.7576-15.155 5.7848-5.812 14.992-5.812 5.7033 0 9.6142 1.4394v8.4464q-3.9108-2.3356-8.908-2.3356-5.4861 0-8.8537 3.4492-3.3677 3.4492-3.3677 9.3426 0 5.649 3.1776 9.0167 3.1776 3.3405 8.555 3.3405 5.133 0 9.3969-2.4986z"/><path d="m355.7 57.089h-9.5599l-2.7702-8.6636h-13.851l-2.743 8.6636h-9.5055l14.177-38.946h10.402zm-14.34-15.399-4.1824-13.09q-0.4617-1.4666-0.65181-3.5035h-0.21727q-0.13579 1.711-0.67897 3.3948l-4.2368 13.199z"/><path d="m357.77 55.595v-8.6908q2.3628 1.9826 5.133 2.9875 2.7702 0.97771 5.5947 0.97771 1.6567 0 2.8788-0.29875 1.2493-0.29874 2.0641-0.81476 0.84192-0.54317 1.2493-1.2493 0.40738-0.73328 0.40738-1.5752 0-1.1407-0.6518-2.0369-0.65181-0.89624-1.7925-1.6567-1.1135-0.76044-2.6616-1.4666-1.548-0.70613-3.3405-1.4394-4.5627-1.9011-6.8168-4.6441-2.227-2.743-2.227-6.6267 0-3.0418 1.2221-5.2145 1.2221-2.1999 3.3134-3.6121 2.1184-1.4123 4.8886-2.0641 2.7702-0.67897 5.8663-0.67897 3.0418 0 5.3774 0.38022 2.3628 0.35306 4.3454 1.1135v8.1204q-0.97771-0.67897-2.1455-1.195-1.1407-0.51602-2.3628-0.84192-1.2221-0.35306-2.4443-0.51602-1.195-0.16295-2.2813-0.16295-1.4937 0-2.7159 0.29874-1.2221 0.27159-2.0641 0.7876t-1.3036 1.2493q-0.4617 0.70613-0.4617 1.6024 0 0.97771 0.51602 1.7653 0.51601 0.76044 1.4666 1.4666 0.95055 0.67897 2.3085 1.3579 1.3579 0.65181 3.0689 1.3579 2.3356 0.97771 4.1824 2.0912 1.874 1.0863 3.2047 2.4714 1.3308 1.3851 2.0369 3.1776 0.70613 1.7653 0.70613 4.1281 0 3.259-1.2493 5.4861-1.2221 2.1999-3.3405 3.5849-2.1184 1.3579-4.9429 1.9554-2.7974 0.59749-5.9206 0.59749-3.2047 0-6.1107-0.54317-2.8788-0.54317-4.9972-1.6295z"/><path d="m417.09 25.286h-11.108v31.803h-8.7994v-31.803h-11.054v-7.1427h30.961z"/></g><g transform="scale(.95898 1.0428)" fill="#24425d" stroke-width=".95898" aria-label="OPEN"><path d="m158.32 57.768q-8.3649 0-13.634-5.4317-5.2688-5.4589-5.2688-14.204 0-9.234 5.3503-14.937 5.3503-5.7033 14.177-5.7033 8.3377 0 13.471 5.4589 5.1602 5.4589 5.1602 14.394 0 9.1796-5.3503 14.801-5.3231 5.6218-13.905 5.6218zm0.38022-32.726q-4.617 0-7.3328 3.4763-2.7159 3.4492-2.7159 9.1525 0 5.7848 2.7159 9.1525 2.7159 3.3677 7.1156 3.3677 4.5355 0 7.1971-3.259 2.6616-3.2862 2.6616-9.0982 0-6.0564-2.5801-9.4241-2.5801-3.3677-7.0613-3.3677z"/><path d="m191.81 43.673v13.416h-8.7723v-38.946h13.742q14.72 0 14.72 12.412 0 5.8663-4.2368 9.5055-4.2096 3.6121-11.271 3.6121zm0-18.794v12.14h3.4492q7.0069 0 7.0069-6.1379 0-6.0021-7.0069-6.0021z"/><path d="m239.55 57.089h-23.356v-38.946h22.46v7.1427h-13.688v8.6636h12.737v7.1156h-12.737v8.908h14.584z"/><path d="m279.83 57.089h-8.8537l-16.051-24.47q-1.4122-2.1455-1.9554-3.2319h-0.10864q0.21727 2.0641 0.21727 6.3008v21.401h-8.2834v-38.946h9.4512l15.453 23.71q1.0592 1.6024 1.9554 3.1776h0.10863q-0.21727-1.3579-0.21727-5.3503v-21.537h8.2834z"/></g></svg>
