<?xml version="1.0" encoding="UTF-8" standalone="no"?>
<!-- Generator: Adobe Illustrator 15.0.2, SVG Export Plug-In . SVG Version: 6.00 Build 0)  -->

<svg
   version="1.1"
   id="Ebene_1"
   x="0px"
   y="0px"
   width="399.98016"
   height="79.275291"
   viewBox="0 0 399.98017 79.275291"
   enable-background="new 0 0 717.17 540"
   xml:space="preserve"
   inkscape:version="1.2.2 (b0a8486541, 2022-12-01)"
   sodipodi:docname="opencast-logo-paths.svg"
   xmlns:inkscape="http://www.inkscape.org/namespaces/inkscape"
   xmlns:sodipodi="http://sodipodi.sourceforge.net/DTD/sodipodi-0.dtd"
   xmlns="http://www.w3.org/2000/svg"
   xmlns:svg="http://www.w3.org/2000/svg"
   xmlns:rdf="http://www.w3.org/1999/02/22-rdf-syntax-ns#"
   xmlns:cc="http://creativecommons.org/ns#"
   xmlns:dc="http://purl.org/dc/elements/1.1/"><metadata
     id="metadata63"><rdf:RDF><cc:Work
         rdf:about=""><dc:format>image/svg+xml</dc:format><dc:type
           rdf:resource="http://purl.org/dc/dcmitype/StillImage" /></cc:Work></rdf:RDF></metadata><defs
     id="defs61"><rect
       x="207.79762"
       y="92.609444"
       width="333.69519"
       height="116.73647"
       id="rect355" /></defs><sodipodi:namedview
     pagecolor="#ffffff"
     bordercolor="#666666"
     borderopacity="1"
     objecttolerance="10"
     gridtolerance="10"
     guidetolerance="10"
     inkscape:pageopacity="0"
     inkscape:pageshadow="2"
     inkscape:window-width="1920"
     inkscape:window-height="1043"
     id="namedview59"
     showgrid="false"
     fit-margin-top="0"
     fit-margin-left="0"
     fit-margin-right="0"
     fit-margin-bottom="0"
     inkscape:zoom="2"
     inkscape:cx="231"
     inkscape:cy="56.75"
     inkscape:window-x="0"
     inkscape:window-y="0"
     inkscape:window-maximized="1"
     inkscape:current-layer="Ebene_1"
     inkscape:showpageshadow="0"
     inkscape:pagecheckerboard="0"
     inkscape:deskcolor="#505050" /><g
     id="g1102"
     inkscape:label="g1102"
     transform="translate(-20.000001,-20)"><path
       style="fill:#4bb07b;stroke-width:0.709939"
       d="M 59.542871,20 99.086452,59.527962 59.586887,99.041726 59.569139,80.576932 80.619529,59.526542 59.569139,38.477573 Z"
       id="polygon19" /><path
       style="fill:#24425d;stroke-width:0.709939"
       d="M 38.467634,59.526542 59.569139,38.477573 59.542871,20 20.000001,59.527962 59.586887,99.041726 59.569139,80.576932 Z"
       id="polygon23" /><path
       style="fill:#4bb07b;stroke-width:0.709939"
       d="M 91.081184,99.275295 91.063436,80.809792 112.11383,59.759402 91.063436,38.710432 91.037878,20.23286 130.58004,59.760822 Z"
       id="polygon27" /></g><g
     aria-label="CAST"
     transform="scale(0.95898462,1.0427696)"
     id="text357-3"
     style="font-weight:bold;font-size:55.621px;font-family:'Segoe Pro Display';-inkscape-font-specification:'Segoe Pro Display Bold';letter-spacing:-1.00138px;display:inline;fill:#4bb07b;stroke-width:0.958984"
     inkscape:label="CAST"><path
       d="m 315.66613,55.703877 q -4.26392,2.06406 -11.13507,2.06406 -8.96236,0 -14.09536,-5.268786 -5.13299,-5.268786 -5.13299,-14.041043 0,-9.342589 5.75764,-15.154549 5.78481,-5.81196 14.9916,-5.81196 5.70333,0 9.61418,1.439411 v 8.446353 q -3.91085,-2.335648 -8.90805,-2.335648 -5.48606,0 -8.85374,3.449154 -3.36767,3.449154 -3.36767,9.34259 0,5.649007 3.17756,9.016685 3.17757,3.340519 8.55499,3.340519 5.13299,0 9.39691,-2.4986 z"
       style="font-family:'Segoe UI';-inkscape-font-specification:'Segoe UI Bold'"
       id="path305" /><path
       d="m 355.70153,57.08897 h -9.55986 l -2.77019,-8.663622 h -13.85093 l -2.74303,8.663622 h -9.50554 l 14.17684,-38.945562 h 10.40177 z M 341.36174,41.689993 337.1793,28.599504 q -0.4617,-1.46657 -0.65181,-3.503471 h -0.21727 q -0.13579,1.710997 -0.67897,3.394836 l -4.23675,13.199124 z"
       style="font-family:'Segoe UI';-inkscape-font-specification:'Segoe UI Bold'"
       id="path307" /><path
       d="m 357.76908,55.595242 v -8.690781 q 2.36281,1.982585 5.13299,2.987456 2.77019,0.977713 5.59469,0.977713 1.65668,0 2.87882,-0.298746 1.2493,-0.298745 2.06406,-0.81476 0.84192,-0.543174 1.2493,-1.2493 0.40738,-0.733285 0.40738,-1.575204 0,-1.140665 -0.6518,-2.036902 -0.65181,-0.896237 -1.79248,-1.65668 -1.1135,-0.760443 -2.66155,-1.466569 -1.54804,-0.706126 -3.34052,-1.439411 -4.56266,-1.901108 -6.81683,-4.644136 -2.22701,-2.743028 -2.22701,-6.626721 0,-3.041773 1.22214,-5.214468 1.22214,-2.199854 3.31336,-3.612106 2.11838,-1.412252 4.88856,-2.06406 2.77019,-0.678968 5.86628,-0.678968 3.04177,0 5.37742,0.380222 2.36281,0.353063 4.34539,1.113506 v 8.120449 q -0.97771,-0.678968 -2.14553,-1.194983 -1.14067,-0.516015 -2.36281,-0.841919 -1.22214,-0.353063 -2.44428,-0.516015 -1.19498,-0.162952 -2.28133,-0.162952 -1.49373,0 -2.71587,0.298745 -1.22214,0.271587 -2.06406,0.787602 -0.84192,0.516015 -1.30362,1.2493 -0.4617,0.706126 -0.4617,1.602363 0,0.977713 0.51602,1.765315 0.51601,0.760443 1.46657,1.466569 0.95055,0.678967 2.30849,1.357935 1.35793,0.651808 3.06893,1.357934 2.33565,0.977713 4.18244,2.091219 1.87395,1.086348 3.20472,2.471441 1.33078,1.385093 2.0369,3.177567 0.70613,1.765315 0.70613,4.128121 0,3.259043 -1.2493,5.486055 -1.22214,2.199854 -3.34052,3.584948 -2.11838,1.357934 -4.94288,1.955425 -2.79735,0.597491 -5.9206,0.597491 -3.20472,0 -6.1107,-0.543173 -2.87882,-0.543174 -4.9972,-1.629522 z"
       style="font-family:'Segoe UI';-inkscape-font-specification:'Segoe UI Bold'"
       id="path309" /><path
       d="m 417.08715,25.286143 h -11.1079 V 57.08897 h -8.79942 V 25.286143 h -11.05359 v -7.142735 h 30.96091 z"
       style="font-family:'Segoe UI';-inkscape-font-specification:'Segoe UI Bold'"
       id="path311" /></g><g
     aria-label="OPEN"
     transform="scale(0.95898462,1.0427696)"
     id="text357"
     style="font-weight:bold;font-size:55.621px;font-family:'Segoe Pro Display';-inkscape-font-specification:'Segoe Pro Display Bold';letter-spacing:-1.00138px;display:inline;fill:#24425d;stroke-width:0.958984"
     inkscape:label="OPEN"><path
       d="m 158.31571,57.767937 q -8.36488,0 -13.63366,-5.431738 -5.26879,-5.458896 -5.26879,-14.203995 0,-9.233955 5.35026,-14.93728 5.35027,-5.703325 14.17684,-5.703325 8.33772,0 13.47071,5.458897 5.16015,5.458897 5.16015,14.394106 0,9.179638 -5.35026,14.801486 -5.3231,5.621849 -13.90525,5.621849 z m 0.38022,-32.726222 q -4.61698,0 -7.33284,3.476313 -2.71587,3.449153 -2.71587,9.152478 0,5.784801 2.71587,9.152479 2.71586,3.367678 7.11557,3.367678 4.5355,0 7.19706,-3.259043 2.66155,-3.286202 2.66155,-9.098161 0,-6.056388 -2.58008,-9.424066 -2.58007,-3.367678 -7.06126,-3.367678 z"
       style="font-family:'Segoe UI';-inkscape-font-specification:'Segoe UI Bold'"
       id="path296" /><path
       d="M 191.80587,43.672577 V 57.08897 h -8.77226 V 18.143408 h 13.7423 q 14.72001,0 14.72001,12.411521 0,5.866278 -4.23676,9.505542 -4.20959,3.612106 -11.27085,3.612106 z m 0,-18.793814 v 12.139935 h 3.44915 q 7.00694,0 7.00694,-6.137864 0,-6.002071 -7.00694,-6.002071 z"
       style="font-family:'Segoe UI';-inkscape-font-specification:'Segoe UI Bold'"
       id="path298" /><path
       d="M 239.55434,57.08897 H 216.19787 V 18.143408 h 22.46024 v 7.142735 h -13.68798 v 8.663623 h 12.73742 v 7.115577 h -12.73742 v 8.90805 h 14.58421 z"
       style="font-family:'Segoe UI';-inkscape-font-specification:'Segoe UI Bold'"
       id="path300" /><path
       d="m 279.83417,57.08897 h -8.85373 L 254.92965,32.61899 q -1.41225,-2.145537 -1.95542,-3.231884 h -0.10864 q 0.21727,2.06406 0.21727,6.300816 V 57.08897 h -8.2834 V 18.143408 h 9.45123 l 15.45329,23.709537 q 1.05919,1.602362 1.95543,3.177567 h 0.10863 q -0.21727,-1.357935 -0.21727,-5.350263 V 18.143408 h 8.2834 z"
       style="font-family:'Segoe UI';-inkscape-font-specification:'Segoe UI Bold'"
       id="path302" /></g></svg>
